<svg width="20" height="16" viewBox="0 0 20 16" fill="none" xmlns="http://www.w3.org/2000/svg">
<path d="M0 1.75C0 1.41848 0.131696 1.10054 0.366117 0.866117C0.600537 0.631696 0.918479 0.5 1.25 0.5H18.75C19.0815 0.5 19.3995 0.631696 19.6339 0.866117C19.8683 1.10054 20 1.41848 20 1.75C20 2.08152 19.8683 2.39946 19.6339 2.63388C19.3995 2.8683 19.0815 3 18.75 3H1.25C0.918479 3 0.600537 2.8683 0.366117 2.63388C0.131696 2.39946 0 2.08152 0 1.75ZM0 8C0 7.66848 0.131696 7.35054 0.366117 7.11612C0.600537 6.8817 0.918479 6.75 1.25 6.75H18.75C19.0815 6.75 19.3995 6.8817 19.6339 7.11612C19.8683 7.35054 20 7.66848 20 8C20 8.33152 19.8683 8.64946 19.6339 8.88388C19.3995 9.1183 19.0815 9.25 18.75 9.25H1.25C0.918479 9.25 0.600537 9.1183 0.366117 8.88388C0.131696 8.64946 0 8.33152 0 8ZM0 14.25C0 13.9185 0.131696 13.6005 0.366117 13.3661C0.600537 13.1317 0.918479 13 1.25 13H18.75C19.0815 13 19.3995 13.1317 19.6339 13.3661C19.8683 13.6005 20 13.9185 20 14.25C20 14.5815 19.8683 14.8995 19.6339 15.1339C19.3995 15.3683 19.0815 15.5 18.75 15.5H1.25C0.918479 15.5 0.600537 15.3683 0.366117 15.1339C0.131696 14.8995 0 14.5815 0 14.25Z" fill="black"/>
</svg>
